<?xml version="1.0" encoding="iso-8859-1"?>
<!-- Generator: Adobe Illustrator 19.0.0, SVG Export Plug-In . SVG Version: 6.00 Build 0)  -->
<svg version="1.1" id="Capa_1" xmlns="http://www.w3.org/2000/svg" xmlns:xlink="http://www.w3.org/1999/xlink" x="0px" y="0px"
	 viewBox="0 0 498.036 498.036" style="enable-background:new 0 0 498.036 498.036;" xml:space="preserve">
<circle style="fill:#FDBF5E;" cx="249.018" cy="249.018" r="249.018"/>
<g>
	<rect x="201.697" y="45.77" style="fill:#193651;" width="15.515" height="14.739"/>
	<rect x="241.261" y="45.77" style="fill:#193651;" width="15.515" height="14.739"/>
	<rect x="280.824" y="45.77" style="fill:#193651;" width="15.515" height="14.739"/>
</g>
<path style="fill:#FFFFFF;" d="M249.794,121.794c-60.509-27.927-131.103-27.927-190.836,0v288.582
	c56.63-26.376,123.345-17.842,181.527,7.758h19.394C318.061,393.309,384,384,441.406,410.376V121.794
	C380.121,93.867,309.527,93.867,249.794,121.794z"/>
<path style="fill:#193651;" d="M259.103,425.891h-19.394c-0.776,0-2.327,0-3.103-0.776c-34.909-14.739-70.594-23.273-102.4-23.273
	c-26.376,0-50.424,5.43-72.921,15.515c-2.327,0.776-5.43,0.776-7.758-0.776c-2.327-1.552-3.879-3.879-3.879-6.206V121.794
	c0-3.103,1.552-5.43,4.655-6.982c30.255-13.964,64.388-21.721,98.521-21.721c32.582,0,65.939,6.982,95.418,20.17
	c29.479-13.188,62.836-20.17,95.418-20.17c34.133,0,68.267,7.758,98.521,21.721c3.103,1.552,4.655,3.879,4.655,6.982v288.582
	c0,2.327-1.552,5.43-3.879,6.206c-2.327,1.552-5.43,1.552-7.758,0.776c-21.721-10.085-46.545-15.515-72.921-15.515
	c-31.806,0-67.491,7.758-102.4,23.273C261.43,425.891,260.655,425.891,259.103,425.891z M241.261,410.376h16.291
	c36.461-15.515,72.921-23.273,107.055-23.273c24.048,0,47.321,3.879,68.267,12.412V127.224
	c-56.63-24.824-124.121-24.048-179.976,2.327c-2.327,0.776-4.655,0.776-6.206,0c-55.855-26.376-123.345-26.376-179.976-2.327
	v272.291c20.945-7.758,43.442-12.412,68.267-12.412C168.339,387.103,204.8,395.636,241.261,410.376z"/>
<g>
	<path style="fill:#F16051;" d="M92.315,98.521c0,92.315,0,184.63,0,276.945c49.648-24.824,107.83-24.824,156.703,0
		c0-92.315,0-184.63,0-276.945C200.145,73.697,141.964,73.697,92.315,98.521z"/>
	<path style="fill:#F16051;" d="M226.521,341.333c-17.842-5.43-37.236-8.533-55.855-8.533s-38.012,3.103-55.855,8.533V114.036
		c17.842-6.982,36.461-10.861,55.855-10.861c18.618,0,38.012,3.879,55.855,10.861L226.521,341.333L226.521,341.333z"/>
</g>
<path style="fill:#E1E6E9;" d="M92.315,98.521c0,92.315,0,184.63,0,276.945c49.648-24.824,107.83-24.824,156.703,0
	c0-92.315,0-184.63,0-276.945C200.145,73.697,141.964,73.697,92.315,98.521z"/>
<path style="fill:#193651;" d="M249.794,383.224c-1.552,0-2.327,0-3.879-0.776c-46.545-23.273-103.952-23.273-149.721,0
	c-2.327,1.552-5.43,0.776-7.758,0c-2.327-1.552-3.879-3.879-3.879-6.982V98.521c0-3.103,1.552-5.43,3.879-6.982
	c50.424-25.6,113.261-25.6,163.685,0c2.327,1.552,3.879,3.879,3.879,6.982v276.945c0,2.327-1.552,5.43-3.879,6.982
	C252.121,383.224,250.57,383.224,249.794,383.224z M170.667,349.091c24.048,0,48.097,4.655,70.594,14.739V103.176
	c-44.218-20.945-96.97-20.945-141.188,0v259.879C122.57,353.745,146.618,349.091,170.667,349.091z"/>
<path style="fill:#FFFFFF;" d="M226.521,341.333c-17.842-5.43-37.236-8.533-55.855-8.533s-38.012,3.103-55.855,8.533V114.036
	c17.842-6.982,36.461-10.861,55.855-10.861c18.618,0,38.012,3.879,55.855,10.861L226.521,341.333L226.521,341.333z"/>
<g>
	<path style="fill:#F16051;" d="M249.794,98.521c0,92.315,0,184.63,0,276.945c49.648-24.824,107.83-24.824,156.703,0
		c0-92.315,0-184.63,0-276.945C356.849,73.697,298.667,73.697,249.794,98.521z"/>
	<path style="fill:#F16051;" d="M384,341.333c-17.842-5.43-37.236-8.533-55.855-8.533s-38.012,3.103-55.855,8.533V114.036
		c17.842-6.982,36.461-10.861,55.855-10.861c19.394,0,38.012,3.879,55.855,10.861V341.333z"/>
</g>
<path style="fill:#E1E6E9;" d="M249.794,98.521c0,92.315,0,184.63,0,276.945c49.648-24.824,107.83-24.824,156.703,0
	c0-92.315,0-184.63,0-276.945C356.849,73.697,298.667,73.697,249.794,98.521z"/>
<path style="fill:#193651;" d="M249.794,383.224c-1.552,0-3.103,0-3.879-0.776c-2.327-1.552-3.879-3.879-3.879-6.982V98.521
	c0-3.103,1.552-5.43,3.879-6.982c50.424-25.6,113.261-25.6,163.685,0c2.327,1.552,3.879,3.879,3.879,6.982v276.945
	c0,2.327-1.552,5.43-3.879,6.982s-5.43,1.552-7.758,0c-46.545-23.273-103.952-23.273-149.721,0
	C252.121,383.224,250.57,383.224,249.794,383.224z M257.552,103.176v259.879c44.994-18.618,96.97-18.618,141.188,0V103.176
	C354.521,82.23,301.77,82.23,257.552,103.176z"/>
<path style="fill:#FFFFFF;" d="M384,341.333c-17.842-5.43-37.236-8.533-55.855-8.533s-38.012,3.103-55.855,8.533V114.036
	c17.842-6.982,36.461-10.861,55.855-10.861c19.394,0,38.012,3.879,55.855,10.861V341.333z"/>
<g>
	<path style="fill:#193651;" d="M363.83,145.842c-22.497-11.636-48.873-11.636-71.37,0c-3.879,1.552-8.533,0.776-10.085-3.103
		c-1.552-3.879-0.776-8.533,3.103-10.085c26.376-13.188,58.958-13.188,85.333,0c3.879,1.552,5.43,6.982,3.103,10.085
		C372.364,145.842,367.709,147.394,363.83,145.842z"/>
	<path style="fill:#193651;" d="M281.6,185.406c-1.552-3.879-0.776-8.533,3.103-10.085c26.376-13.188,58.958-13.188,85.333,0
		c3.879,1.552,5.43,6.982,3.103,10.085c-1.552,3.879-6.982,5.43-10.085,3.103c-22.497-11.636-48.873-11.636-71.37,0
		C288.582,190.836,283.927,189.285,281.6,185.406z"/>
	<path style="fill:#193651;" d="M281.6,228.848c-1.552-3.879-0.776-8.533,3.103-10.085c26.376-13.188,58.958-13.188,85.333,0
		c3.879,1.552,5.43,6.982,3.103,10.085c-1.552,3.879-6.982,5.43-10.085,3.103c-22.497-11.636-48.873-11.636-71.37,0
		C288.582,234.279,283.927,232.727,281.6,228.848z"/>
	<path style="fill:#193651;" d="M363.83,276.17c-21.721-10.861-48.873-10.861-71.37,0c-3.879,1.552-8.533,0.776-10.085-3.103
		c-1.552-3.879-0.776-8.533,3.103-10.085c26.376-13.188,58.958-13.188,85.333,0c3.879,1.552,5.43,6.982,3.103,10.085
		C372.364,276.17,367.709,277.721,363.83,276.17z"/>
	<path style="fill:#193651;" d="M363.83,319.612c-22.497-11.636-48.873-11.636-71.37,0c-3.879,2.327-8.533,0.776-10.085-3.103
		c-1.552-3.879-0.776-8.533,3.103-10.085c26.376-13.188,58.958-13.188,85.333,0c3.879,1.552,5.43,6.982,3.103,10.085
		C372.364,320.388,367.709,321.939,363.83,319.612z"/>
	<path style="fill:#193651;" d="M206.352,145.842c-22.497-11.636-48.873-11.636-71.37,0c-3.879,1.552-8.533,0.776-10.085-3.103
		c-1.552-3.879-0.776-8.533,3.103-10.085c26.376-13.188,58.958-13.188,85.333,0c3.879,1.552,5.43,6.982,3.103,10.085
		C214.885,145.842,210.23,147.394,206.352,145.842z"/>
	<path style="fill:#193651;" d="M124.897,185.406c-1.552-3.879-0.776-8.533,3.103-10.085c26.376-13.188,58.958-13.188,85.333,0
		c3.879,1.552,5.43,6.982,3.103,10.085c-1.552,3.879-6.206,5.43-10.085,3.103c-21.721-10.861-48.873-10.861-71.37,0
		C131.879,190.836,127.224,189.285,124.897,185.406z"/>
	<path style="fill:#193651;" d="M124.897,228.848c-1.552-3.879-0.776-8.533,3.103-10.085c26.376-13.188,58.958-13.188,85.333,0
		c3.879,1.552,5.43,6.982,3.103,10.085c-1.552,3.879-6.982,5.43-10.085,3.103c-22.497-11.636-48.873-11.636-71.37,0
		C131.879,234.279,127.224,232.727,124.897,228.848z"/>
	<path style="fill:#193651;" d="M124.897,273.067c-1.552-3.879-0.776-8.533,3.103-10.085c26.376-13.188,58.958-13.188,85.333,0
		c3.879,1.552,5.43,6.982,3.103,10.085c-1.552,3.879-6.982,5.43-10.085,3.103c-22.497-11.636-48.873-11.636-71.37,0
		C131.879,277.721,127.224,276.17,124.897,273.067z"/>
	<path style="fill:#193651;" d="M206.352,319.612c-22.497-11.636-48.873-11.636-71.37,0c-3.879,2.327-8.533,0.776-10.085-3.103
		c-1.552-3.879-0.776-8.533,3.103-10.085c26.376-13.188,58.958-13.188,85.333,0c3.879,1.552,5.43,6.982,3.103,10.085
		C214.885,320.388,210.23,321.939,206.352,319.612z"/>
</g>
<g>
</g>
<g>
</g>
<g>
</g>
<g>
</g>
<g>
</g>
<g>
</g>
<g>
</g>
<g>
</g>
<g>
</g>
<g>
</g>
<g>
</g>
<g>
</g>
<g>
</g>
<g>
</g>
<g>
</g>
</svg>
