<?xml version="1.0" encoding="iso-8859-1"?>
<!-- Generator: Adobe Illustrator 19.0.0, SVG Export Plug-In . SVG Version: 6.00 Build 0)  -->
<svg version="1.1" id="Capa_1" xmlns="http://www.w3.org/2000/svg" xmlns:xlink="http://www.w3.org/1999/xlink" x="0px" y="0px"
	 viewBox="0 0 512 512" style="enable-background:new 0 0 512 512;" xml:space="preserve">
<path style="fill:#32D736;" d="M418.4,206.6c3.9-4.501,4.801-10.801,2.098-15.901C418.1,185.3,412.698,182,407,182h-75V15
	c0-8.401-6.599-15-15-15H195c-8.401,0-15,6.599-15,15v167h-75c-5.698,0-11.1,3.3-13.499,8.699c-2.703,5.099-1.802,11.4,2.098,15.901
	l152,180c2.699,3.3,6.899,5.4,11.4,5.4c4.501,0,8.701-2.1,11.4-5.4L418.4,206.6z"/>
<path style="fill:#0D70B2;" d="M512,317c0-8.401-6.599-15-15-15h-60c-8.401,0-15,6.599-15,15v105H90V317c0-8.401-6.599-15-15-15H15
	c-8.401,0-15,6.599-15,15v150c0,24.899,20.098,45,45,45h422c24.902,0,45-20.101,45-45V317z"/>
<path style="fill:#10BB67;" d="M268.4,386.6c-2.699,3.3-6.899,5.4-11.4,5.4V0h60c8.401,0,15,6.599,15,15v167h75
	c5.698,0,11.1,3.3,13.499,8.699c2.703,5.099,1.802,11.4-2.098,15.901L268.4,386.6z"/>
<path style="fill:#0059AA;" d="M497,302c8.401,0,15,6.599,15,15v150c0,24.899-20.098,45-45,45H257v-90h165V317
	c0-8.401,6.599-15,15-15H497z"/>
<g>
</g>
<g>
</g>
<g>
</g>
<g>
</g>
<g>
</g>
<g>
</g>
<g>
</g>
<g>
</g>
<g>
</g>
<g>
</g>
<g>
</g>
<g>
</g>
<g>
</g>
<g>
</g>
<g>
</g>
</svg>
