<?xml version="1.0" encoding="iso-8859-1"?>
<!-- Generator: Adobe Illustrator 19.0.0, SVG Export Plug-In . SVG Version: 6.00 Build 0)  -->
<svg version="1.1" id="Capa_1" xmlns="http://www.w3.org/2000/svg" xmlns:xlink="http://www.w3.org/1999/xlink" x="0px" y="0px"
	 viewBox="0 0 438.857 438.857" style="enable-background:new 0 0 438.857 438.857;" xml:space="preserve">
<path style="fill:#00BBD3;" d="M431.02,101.878c-4.702-2.612-10.449-3.135-15.151-0.522l-88.816,44.931v1.045v144.196v0.522
	l88.816,44.931c2.09,1.045,4.702,1.567,7.314,1.567s5.747-0.522,8.359-2.09c4.702-2.612,7.314-7.837,7.314-13.584V115.461
	C438.335,110.237,435.722,105.012,431.02,101.878z"/>
<path style="fill:#4DCFE0;" d="M330.188,147.331v-1.045V93.518c0-8.882-6.792-15.673-15.673-15.673H15.673
	C6.792,77.845,0,84.637,0,93.518v251.82c0,8.882,6.792,15.673,15.673,15.673h298.841c8.882,0,15.673-6.792,15.673-15.673v-53.29
	v-0.522V147.331z"/>
<g>
</g>
<g>
</g>
<g>
</g>
<g>
</g>
<g>
</g>
<g>
</g>
<g>
</g>
<g>
</g>
<g>
</g>
<g>
</g>
<g>
</g>
<g>
</g>
<g>
</g>
<g>
</g>
<g>
</g>
</svg>
