<?xml version="1.0" encoding="utf-8"?>
<!-- Generator: Adobe Illustrator 24.0.1, SVG Export Plug-In . SVG Version: 6.00 Build 0)  -->
<svg version="1.1" id="Layer_1" xmlns="http://www.w3.org/2000/svg" xmlns:xlink="http://www.w3.org/1999/xlink" x="0px" y="0px"
	 viewBox="0 0 180 180" style="enable-background:new 0 0 180 180;" xml:space="preserve">
<style type="text/css">
	.st0{fill:#AC1D36;}
</style>
<path class="st0" d="M102.2,86.9c9.7-3.9,16.3-10.3,19-17.4c2.4-6.3,2-13-1-19.5c-4.5-9.6-14.5-19.9-32.3-11.5l-10.2,4.8l43.1,99.5
	l-25.2,11.5c-23.5,8.5-39.8,2.6-49-18c-7-15.7-3.8-31.5,8.5-42.8L12.4,58.9c-3.8,9.5-5.9,19.9-5.9,30.8c0,46,37.3,83.4,83.4,83.4
	c28.8,0,54.2-14.6,69.2-36.9L102.2,86.9z M20.3,43.8C35.3,21.2,60.9,6.3,89.9,6.3c46,0,83.4,37.3,83.4,83.4
	c0,11.1-2.2,21.8-6.2,31.5L125,86.9c12.3-11.3,15.5-27.1,8.5-42.8c-9.2-20.6-29.2-27.5-49-18L59.2,37.5l43.1,99.5L92,141.8
	c-18.1,7.6-27.7-1.8-32.3-11.5c-3-6.5-3.4-13.2-1-19.5c2.7-7.1,7.6-12.7,19-17.4L20.3,43.8z"/>
</svg>
